<mxfile host="Electron" agent="Mozilla/5.0 (Windows NT 10.0; Win64; x64) AppleWebKit/537.36 (KHTML, like Gecko) draw.io/24.7.17 Chrome/128.0.6613.36 Electron/32.0.1 Safari/537.36" version="24.7.17" pages="2">
  <diagram name="Страница — 1" id="GT7hetvypRUp4yKOunO2">
    <mxGraphModel dx="2373" dy="1175" grid="0" gridSize="10" guides="1" tooltips="1" connect="1" arrows="1" fold="1" page="1" pageScale="1" pageWidth="1654" pageHeight="2336" math="0" shadow="0">
      <root>
        <mxCell id="0" />
        <mxCell id="1" parent="0" />
        <mxCell id="F4AcdebA19WUywxoF-Kg-408" value="Гость" style="shape=umlActor;verticalLabelPosition=bottom;verticalAlign=top;html=1;outlineConnect=0;" parent="1" vertex="1">
          <mxGeometry x="145" y="587.82" width="50" height="90" as="geometry" />
        </mxCell>
        <mxCell id="F4AcdebA19WUywxoF-Kg-409" value="Регистрация" style="ellipse;whiteSpace=wrap;html=1;" parent="1" vertex="1">
          <mxGeometry x="288" y="539.82" width="125" height="74" as="geometry" />
        </mxCell>
        <mxCell id="F4AcdebA19WUywxoF-Kg-410" value="Авторизация" style="ellipse;whiteSpace=wrap;html=1;" parent="1" vertex="1">
          <mxGeometry x="288" y="639.6400000000001" width="116" height="73.5" as="geometry" />
        </mxCell>
        <mxCell id="F4AcdebA19WUywxoF-Kg-419" value="" style="endArrow=none;html=1;rounded=0;exitX=1;exitY=0.3333333333333333;exitDx=0;exitDy=0;exitPerimeter=0;entryX=0;entryY=0.5;entryDx=0;entryDy=0;" parent="1" source="F4AcdebA19WUywxoF-Kg-408" target="F4AcdebA19WUywxoF-Kg-409" edge="1">
          <mxGeometry width="50" height="50" relative="1" as="geometry">
            <mxPoint x="425" y="617.82" as="sourcePoint" />
            <mxPoint x="475" y="567.82" as="targetPoint" />
          </mxGeometry>
        </mxCell>
        <mxCell id="F4AcdebA19WUywxoF-Kg-420" value="" style="endArrow=none;html=1;rounded=0;entryX=0;entryY=0.5;entryDx=0;entryDy=0;" parent="1" target="F4AcdebA19WUywxoF-Kg-410" edge="1">
          <mxGeometry width="50" height="50" relative="1" as="geometry">
            <mxPoint x="195" y="617.82" as="sourcePoint" />
            <mxPoint x="322" y="567.82" as="targetPoint" />
          </mxGeometry>
        </mxCell>
        <mxCell id="F4AcdebA19WUywxoF-Kg-421" value="Пользователь" style="shape=umlActor;verticalLabelPosition=bottom;verticalAlign=top;html=1;outlineConnect=0;" parent="1" vertex="1">
          <mxGeometry x="144" y="1465" width="40" height="80" as="geometry" />
        </mxCell>
        <mxCell id="F4AcdebA19WUywxoF-Kg-479" value="Смена количество изучаемых слов" style="ellipse;whiteSpace=wrap;html=1;" parent="1" vertex="1">
          <mxGeometry x="217" y="1662" width="105" height="79" as="geometry" />
        </mxCell>
        <mxCell id="F4AcdebA19WUywxoF-Kg-496" value="Администратор" style="shape=umlActor;verticalLabelPosition=bottom;verticalAlign=top;html=1;outlineConnect=0;" parent="1" vertex="1">
          <mxGeometry x="1446" y="1531.9999999999998" width="40" height="80" as="geometry" />
        </mxCell>
        <mxCell id="F4AcdebA19WUywxoF-Kg-585" value="Добавление своего слова" style="ellipse;whiteSpace=wrap;html=1;" parent="1" vertex="1">
          <mxGeometry x="916" y="1435.0000000000002" width="112.75" height="62.06" as="geometry" />
        </mxCell>
        <mxCell id="F4AcdebA19WUywxoF-Kg-586" value="Изменение своего слова" style="ellipse;whiteSpace=wrap;html=1;" parent="1" vertex="1">
          <mxGeometry x="657.64" y="1485" width="117.75" height="73.06" as="geometry" />
        </mxCell>
        <mxCell id="F4AcdebA19WUywxoF-Kg-587" value="Удаление своего слова" style="ellipse;whiteSpace=wrap;html=1;" parent="1" vertex="1">
          <mxGeometry x="564" y="1748.48" width="109.75" height="78.03" as="geometry" />
        </mxCell>
        <mxCell id="F4AcdebA19WUywxoF-Kg-588" value="Просмотр слова" style="ellipse;whiteSpace=wrap;html=1;" parent="1" vertex="1">
          <mxGeometry x="775.3900000000001" y="1537" width="115.68" height="81" as="geometry" />
        </mxCell>
        <mxCell id="F4AcdebA19WUywxoF-Kg-596" value="Экспорт&lt;br&gt;слов" style="ellipse;whiteSpace=wrap;html=1;" parent="1" vertex="1">
          <mxGeometry x="450" y="1752" width="101" height="71" as="geometry" />
        </mxCell>
        <mxCell id="F4AcdebA19WUywxoF-Kg-597" value="Импорт&lt;br&gt;слов" style="ellipse;whiteSpace=wrap;html=1;" parent="1" vertex="1">
          <mxGeometry x="350" y="1757" width="93.75" height="65.34" as="geometry" />
        </mxCell>
        <mxCell id="F4AcdebA19WUywxoF-Kg-608" value="Изменение своего словаря" style="ellipse;whiteSpace=wrap;html=1;" parent="1" vertex="1">
          <mxGeometry x="687" y="1747.76" width="111.01" height="76.5" as="geometry" />
        </mxCell>
        <mxCell id="F4AcdebA19WUywxoF-Kg-609" value="Удаление своего словаря" style="ellipse;whiteSpace=wrap;html=1;" parent="1" vertex="1">
          <mxGeometry x="811" y="1745.75" width="111.57" height="78.51" as="geometry" />
        </mxCell>
        <mxCell id="F4AcdebA19WUywxoF-Kg-640" value="Просмотр задания" style="ellipse;whiteSpace=wrap;html=1;" parent="1" vertex="1">
          <mxGeometry x="995" y="1134" width="92" height="60.18" as="geometry" />
        </mxCell>
        <mxCell id="F4AcdebA19WUywxoF-Kg-645" value="Добавление урока" style="ellipse;whiteSpace=wrap;html=1;" parent="1" vertex="1">
          <mxGeometry x="791" y="1239" width="98" height="72.48" as="geometry" />
        </mxCell>
        <mxCell id="F4AcdebA19WUywxoF-Kg-646" value="Изменение урока" style="ellipse;whiteSpace=wrap;html=1;" parent="1" vertex="1">
          <mxGeometry x="788" y="1156" width="89" height="72" as="geometry" />
        </mxCell>
        <mxCell id="F4AcdebA19WUywxoF-Kg-647" value="Удаление урока" style="ellipse;whiteSpace=wrap;html=1;" parent="1" vertex="1">
          <mxGeometry x="803.18" y="1319" width="87.89" height="63.54" as="geometry" />
        </mxCell>
        <mxCell id="F4AcdebA19WUywxoF-Kg-657" value="Добавление задания" style="ellipse;whiteSpace=wrap;html=1;" parent="1" vertex="1">
          <mxGeometry x="978" y="988" width="102.5" height="64.18" as="geometry" />
        </mxCell>
        <mxCell id="F4AcdebA19WUywxoF-Kg-659" value="Удаление задания" style="ellipse;whiteSpace=wrap;html=1;" parent="1" vertex="1">
          <mxGeometry x="993" y="1065" width="94" height="59.18" as="geometry" />
        </mxCell>
        <mxCell id="KuJ4x0eiueRcXk5auPj3-5" value="1" style="ellipse;whiteSpace=wrap;html=1;" parent="1" vertex="1">
          <mxGeometry x="328" y="518.0000000000001" width="45" height="43" as="geometry" />
        </mxCell>
        <mxCell id="KuJ4x0eiueRcXk5auPj3-6" value="2" style="ellipse;whiteSpace=wrap;html=1;" parent="1" vertex="1">
          <mxGeometry x="326" y="619.82" width="45" height="43" as="geometry" />
        </mxCell>
        <mxCell id="KuJ4x0eiueRcXk5auPj3-8" value="" style="endArrow=none;html=1;rounded=0;entryX=0.5;entryY=0;entryDx=0;entryDy=0;exitX=1;exitY=0.3333333333333333;exitDx=0;exitDy=0;exitPerimeter=0;" parent="1" source="F4AcdebA19WUywxoF-Kg-421" target="F4AcdebA19WUywxoF-Kg-597" edge="1">
          <mxGeometry width="50" height="50" relative="1" as="geometry">
            <mxPoint x="547" y="1469.6666666666665" as="sourcePoint" />
            <mxPoint x="900.4399999999973" y="1162.1599999999999" as="targetPoint" />
            <Array as="points" />
          </mxGeometry>
        </mxCell>
        <mxCell id="KuJ4x0eiueRcXk5auPj3-9" value="" style="endArrow=none;html=1;rounded=0;entryX=0.5;entryY=0;entryDx=0;entryDy=0;exitX=1;exitY=0.3333333333333333;exitDx=0;exitDy=0;exitPerimeter=0;" parent="1" source="F4AcdebA19WUywxoF-Kg-421" target="F4AcdebA19WUywxoF-Kg-596" edge="1">
          <mxGeometry width="50" height="50" relative="1" as="geometry">
            <mxPoint x="550" y="1467" as="sourcePoint" />
            <mxPoint x="915" y="1172" as="targetPoint" />
            <Array as="points" />
          </mxGeometry>
        </mxCell>
        <mxCell id="KuJ4x0eiueRcXk5auPj3-10" value="" style="endArrow=none;html=1;rounded=0;entryX=0.5;entryY=0;entryDx=0;entryDy=0;exitX=1;exitY=0.3333333333333333;exitDx=0;exitDy=0;exitPerimeter=0;" parent="1" source="F4AcdebA19WUywxoF-Kg-421" target="F4AcdebA19WUywxoF-Kg-587" edge="1">
          <mxGeometry width="50" height="50" relative="1" as="geometry">
            <mxPoint x="560" y="1477" as="sourcePoint" />
            <mxPoint x="911" y="1232" as="targetPoint" />
            <Array as="points" />
          </mxGeometry>
        </mxCell>
        <mxCell id="KuJ4x0eiueRcXk5auPj3-11" value="" style="endArrow=none;html=1;rounded=0;entryX=0;entryY=0.5;entryDx=0;entryDy=0;exitX=1;exitY=0.3333333333333333;exitDx=0;exitDy=0;exitPerimeter=0;" parent="1" source="F4AcdebA19WUywxoF-Kg-421" target="F4AcdebA19WUywxoF-Kg-585" edge="1">
          <mxGeometry width="50" height="50" relative="1" as="geometry">
            <mxPoint x="557" y="1480" as="sourcePoint" />
            <mxPoint x="907" y="1296" as="targetPoint" />
            <Array as="points" />
          </mxGeometry>
        </mxCell>
        <mxCell id="KuJ4x0eiueRcXk5auPj3-12" value="" style="endArrow=none;html=1;rounded=0;entryX=0;entryY=0.5;entryDx=0;entryDy=0;exitX=1;exitY=0.3333333333333333;exitDx=0;exitDy=0;exitPerimeter=0;" parent="1" source="F4AcdebA19WUywxoF-Kg-421" target="F4AcdebA19WUywxoF-Kg-586" edge="1">
          <mxGeometry width="50" height="50" relative="1" as="geometry">
            <mxPoint x="567" y="1490" as="sourcePoint" />
            <mxPoint x="917" y="1306" as="targetPoint" />
            <Array as="points" />
          </mxGeometry>
        </mxCell>
        <mxCell id="KuJ4x0eiueRcXk5auPj3-13" value="" style="endArrow=none;html=1;rounded=0;entryX=0;entryY=0.5;entryDx=0;entryDy=0;exitX=1;exitY=0.3333333333333333;exitDx=0;exitDy=0;exitPerimeter=0;" parent="1" source="F4AcdebA19WUywxoF-Kg-421" target="F4AcdebA19WUywxoF-Kg-588" edge="1">
          <mxGeometry width="50" height="50" relative="1" as="geometry">
            <mxPoint x="548" y="1470" as="sourcePoint" />
            <mxPoint x="902" y="1441" as="targetPoint" />
            <Array as="points" />
          </mxGeometry>
        </mxCell>
        <mxCell id="KuJ4x0eiueRcXk5auPj3-14" value="" style="endArrow=none;html=1;rounded=0;entryX=0.5;entryY=0;entryDx=0;entryDy=0;exitX=1;exitY=0.3333333333333333;exitDx=0;exitDy=0;exitPerimeter=0;" parent="1" source="F4AcdebA19WUywxoF-Kg-421" target="F4AcdebA19WUywxoF-Kg-518" edge="1">
          <mxGeometry width="50" height="50" relative="1" as="geometry">
            <mxPoint x="558" y="1480" as="sourcePoint" />
            <mxPoint x="897" y="1514" as="targetPoint" />
            <Array as="points" />
          </mxGeometry>
        </mxCell>
        <mxCell id="KuJ4x0eiueRcXk5auPj3-15" value="" style="endArrow=none;html=1;rounded=0;entryX=0.5;entryY=0;entryDx=0;entryDy=0;exitX=1;exitY=0.3333333333333333;exitDx=0;exitDy=0;exitPerimeter=0;" parent="1" source="F4AcdebA19WUywxoF-Kg-421" target="F4AcdebA19WUywxoF-Kg-609" edge="1">
          <mxGeometry width="50" height="50" relative="1" as="geometry">
            <mxPoint x="568" y="1490" as="sourcePoint" />
            <mxPoint x="907" y="1524" as="targetPoint" />
            <Array as="points" />
          </mxGeometry>
        </mxCell>
        <mxCell id="KuJ4x0eiueRcXk5auPj3-16" value="" style="endArrow=none;html=1;rounded=0;entryX=0.5;entryY=0;entryDx=0;entryDy=0;exitX=1;exitY=0.3333333333333333;exitDx=0;exitDy=0;exitPerimeter=0;" parent="1" source="F4AcdebA19WUywxoF-Kg-421" target="F4AcdebA19WUywxoF-Kg-608" edge="1">
          <mxGeometry width="50" height="50" relative="1" as="geometry">
            <mxPoint x="549" y="1469" as="sourcePoint" />
            <mxPoint x="905" y="1663" as="targetPoint" />
            <Array as="points" />
          </mxGeometry>
        </mxCell>
        <mxCell id="KuJ4x0eiueRcXk5auPj3-17" value="" style="endArrow=none;html=1;rounded=0;entryX=0.5;entryY=0;entryDx=0;entryDy=0;exitX=1;exitY=0.3333333333333333;exitDx=0;exitDy=0;exitPerimeter=0;" parent="1" source="F4AcdebA19WUywxoF-Kg-421" target="F4AcdebA19WUywxoF-Kg-607" edge="1">
          <mxGeometry width="50" height="50" relative="1" as="geometry">
            <mxPoint x="548" y="1471" as="sourcePoint" />
            <mxPoint x="915" y="1673" as="targetPoint" />
            <Array as="points" />
          </mxGeometry>
        </mxCell>
        <mxCell id="KuJ4x0eiueRcXk5auPj3-18" value="" style="endArrow=none;html=1;rounded=0;entryX=0.5;entryY=0;entryDx=0;entryDy=0;exitX=1;exitY=0.3333333333333333;exitDx=0;exitDy=0;exitPerimeter=0;" parent="1" source="F4AcdebA19WUywxoF-Kg-421" target="F4AcdebA19WUywxoF-Kg-463" edge="1">
          <mxGeometry width="50" height="50" relative="1" as="geometry">
            <mxPoint x="550" y="1472" as="sourcePoint" />
            <mxPoint x="925" y="1683" as="targetPoint" />
            <Array as="points" />
          </mxGeometry>
        </mxCell>
        <mxCell id="KuJ4x0eiueRcXk5auPj3-36" value="" style="endArrow=none;html=1;rounded=0;entryX=1;entryY=0.5;entryDx=0;entryDy=0;exitX=0;exitY=0.3333333333333333;exitDx=0;exitDy=0;exitPerimeter=0;" parent="1" source="F4AcdebA19WUywxoF-Kg-496" target="F4AcdebA19WUywxoF-Kg-586" edge="1">
          <mxGeometry width="50" height="50" relative="1" as="geometry">
            <mxPoint x="1112.1894703485743" y="1484.8400000000001" as="sourcePoint" />
            <mxPoint x="1062.56" y="1523.8400000000001" as="targetPoint" />
            <Array as="points" />
          </mxGeometry>
        </mxCell>
        <mxCell id="KuJ4x0eiueRcXk5auPj3-33" value="" style="endArrow=none;html=1;rounded=0;entryX=0.5;entryY=0;entryDx=0;entryDy=0;exitX=0;exitY=0.3333333333333333;exitDx=0;exitDy=0;exitPerimeter=0;" parent="1" source="F4AcdebA19WUywxoF-Kg-496" target="F4AcdebA19WUywxoF-Kg-596" edge="1">
          <mxGeometry width="50" height="50" relative="1" as="geometry">
            <mxPoint x="1352" y="1461" as="sourcePoint" />
            <mxPoint x="1062.9966229062925" y="1520.8400000000001" as="targetPoint" />
            <Array as="points" />
          </mxGeometry>
        </mxCell>
        <mxCell id="KuJ4x0eiueRcXk5auPj3-32" value="" style="endArrow=none;html=1;rounded=0;entryX=0.5;entryY=0;entryDx=0;entryDy=0;exitX=0;exitY=0.3333333333333333;exitDx=0;exitDy=0;exitPerimeter=0;" parent="1" source="F4AcdebA19WUywxoF-Kg-496" target="F4AcdebA19WUywxoF-Kg-597" edge="1">
          <mxGeometry width="50" height="50" relative="1" as="geometry">
            <mxPoint x="1354" y="1462" as="sourcePoint" />
            <mxPoint x="1062.56" y="1523.5066666666667" as="targetPoint" />
            <Array as="points" />
          </mxGeometry>
        </mxCell>
        <mxCell id="KuJ4x0eiueRcXk5auPj3-42" value="" style="endArrow=none;html=1;rounded=0;entryX=0.5;entryY=0;entryDx=0;entryDy=0;exitX=0;exitY=0.3333333333333333;exitDx=0;exitDy=0;exitPerimeter=0;" parent="1" source="F4AcdebA19WUywxoF-Kg-496" target="F4AcdebA19WUywxoF-Kg-463" edge="1">
          <mxGeometry width="50" height="50" relative="1" as="geometry">
            <mxPoint x="1344" y="1461" as="sourcePoint" />
            <mxPoint x="1026" y="1713" as="targetPoint" />
            <Array as="points" />
          </mxGeometry>
        </mxCell>
        <mxCell id="KuJ4x0eiueRcXk5auPj3-41" value="" style="endArrow=none;html=1;rounded=0;entryX=0.5;entryY=0;entryDx=0;entryDy=0;exitX=0;exitY=0.3333333333333333;exitDx=0;exitDy=0;exitPerimeter=0;" parent="1" source="F4AcdebA19WUywxoF-Kg-496" target="F4AcdebA19WUywxoF-Kg-607" edge="1">
          <mxGeometry width="50" height="50" relative="1" as="geometry">
            <mxPoint x="1344" y="1464" as="sourcePoint" />
            <mxPoint x="1062.7055409687641" y="1524.8400000000001" as="targetPoint" />
            <Array as="points" />
          </mxGeometry>
        </mxCell>
        <mxCell id="KuJ4x0eiueRcXk5auPj3-40" value="" style="endArrow=none;html=1;rounded=0;entryX=0.5;entryY=0;entryDx=0;entryDy=0;exitX=0;exitY=0.3333333333333333;exitDx=0;exitDy=0;exitPerimeter=0;" parent="1" source="F4AcdebA19WUywxoF-Kg-496" target="F4AcdebA19WUywxoF-Kg-608" edge="1">
          <mxGeometry width="50" height="50" relative="1" as="geometry">
            <mxPoint x="1347" y="1459" as="sourcePoint" />
            <mxPoint x="1062.8510819375283" y="1522.8400000000001" as="targetPoint" />
            <Array as="points" />
          </mxGeometry>
        </mxCell>
        <mxCell id="KuJ4x0eiueRcXk5auPj3-39" value="" style="endArrow=none;html=1;rounded=0;entryX=0.5;entryY=0;entryDx=0;entryDy=0;exitX=0;exitY=0.3333333333333333;exitDx=0;exitDy=0;exitPerimeter=0;" parent="1" source="F4AcdebA19WUywxoF-Kg-496" target="F4AcdebA19WUywxoF-Kg-609" edge="1">
          <mxGeometry width="50" height="50" relative="1" as="geometry">
            <mxPoint x="1344" y="1460" as="sourcePoint" />
            <mxPoint x="1062.56" y="1523.8400000000001" as="targetPoint" />
            <Array as="points" />
          </mxGeometry>
        </mxCell>
        <mxCell id="KuJ4x0eiueRcXk5auPj3-38" value="" style="endArrow=none;html=1;rounded=0;entryX=0.5;entryY=0;entryDx=0;entryDy=0;exitX=0;exitY=0.3333333333333333;exitDx=0;exitDy=0;exitPerimeter=0;" parent="1" source="F4AcdebA19WUywxoF-Kg-496" target="F4AcdebA19WUywxoF-Kg-518" edge="1">
          <mxGeometry width="50" height="50" relative="1" as="geometry">
            <mxPoint x="1357" y="1459" as="sourcePoint" />
            <mxPoint x="1062.56" y="1523.8400000000001" as="targetPoint" />
            <Array as="points" />
          </mxGeometry>
        </mxCell>
        <mxCell id="KuJ4x0eiueRcXk5auPj3-37" value="" style="endArrow=none;html=1;rounded=0;entryX=1;entryY=0.5;entryDx=0;entryDy=0;exitX=0;exitY=0.3333333333333333;exitDx=0;exitDy=0;exitPerimeter=0;" parent="1" source="F4AcdebA19WUywxoF-Kg-496" target="F4AcdebA19WUywxoF-Kg-588" edge="1">
          <mxGeometry width="50" height="50" relative="1" as="geometry">
            <mxPoint x="1358" y="1459" as="sourcePoint" />
            <mxPoint x="1062.7055409687641" y="1523.8400000000001" as="targetPoint" />
            <Array as="points" />
          </mxGeometry>
        </mxCell>
        <mxCell id="KuJ4x0eiueRcXk5auPj3-35" value="" style="endArrow=none;html=1;rounded=0;entryX=1;entryY=0.5;entryDx=0;entryDy=0;exitX=0;exitY=0.3333333333333333;exitDx=0;exitDy=0;exitPerimeter=0;" parent="1" source="F4AcdebA19WUywxoF-Kg-496" target="F4AcdebA19WUywxoF-Kg-585" edge="1">
          <mxGeometry width="50" height="50" relative="1" as="geometry">
            <mxPoint x="1346" y="1461" as="sourcePoint" />
            <mxPoint x="1062.56" y="1523.8400000000001" as="targetPoint" />
            <Array as="points" />
          </mxGeometry>
        </mxCell>
        <mxCell id="KuJ4x0eiueRcXk5auPj3-34" value="" style="endArrow=none;html=1;rounded=0;entryX=0.5;entryY=0;entryDx=0;entryDy=0;exitX=0;exitY=0.3333333333333333;exitDx=0;exitDy=0;exitPerimeter=0;" parent="1" source="F4AcdebA19WUywxoF-Kg-496" target="F4AcdebA19WUywxoF-Kg-587" edge="1">
          <mxGeometry width="50" height="50" relative="1" as="geometry">
            <mxPoint x="1351" y="1461" as="sourcePoint" />
            <mxPoint x="1062.56" y="1523.8400000000001" as="targetPoint" />
            <Array as="points" />
          </mxGeometry>
        </mxCell>
        <mxCell id="KuJ4x0eiueRcXk5auPj3-46" value="" style="endArrow=none;html=1;rounded=0;entryX=0;entryY=0.5;entryDx=0;entryDy=0;exitX=1;exitY=0.3333333333333333;exitDx=0;exitDy=0;exitPerimeter=0;" parent="1" source="F4AcdebA19WUywxoF-Kg-421" target="F4AcdebA19WUywxoF-Kg-450" edge="1">
          <mxGeometry width="50" height="50" relative="1" as="geometry">
            <mxPoint x="432" y="1497" as="sourcePoint" />
            <mxPoint x="911" y="1138" as="targetPoint" />
            <Array as="points" />
          </mxGeometry>
        </mxCell>
        <mxCell id="KuJ4x0eiueRcXk5auPj3-49" value="" style="endArrow=none;html=1;rounded=0;entryX=0;entryY=0.5;entryDx=0;entryDy=0;exitX=1;exitY=0.3333333333333333;exitDx=0;exitDy=0;exitPerimeter=0;" parent="1" source="F4AcdebA19WUywxoF-Kg-421" target="F4AcdebA19WUywxoF-Kg-425" edge="1">
          <mxGeometry width="50" height="50" relative="1" as="geometry">
            <mxPoint x="194" y="1502" as="sourcePoint" />
            <mxPoint x="605" y="1256" as="targetPoint" />
            <Array as="points" />
          </mxGeometry>
        </mxCell>
        <mxCell id="KuJ4x0eiueRcXk5auPj3-50" value="" style="endArrow=none;html=1;rounded=0;entryX=0;entryY=0.5;entryDx=0;entryDy=0;exitX=1;exitY=0.3333333333333333;exitDx=0;exitDy=0;exitPerimeter=0;" parent="1" source="F4AcdebA19WUywxoF-Kg-421" target="F4AcdebA19WUywxoF-Kg-477" edge="1">
          <mxGeometry width="50" height="50" relative="1" as="geometry">
            <mxPoint x="204" y="1512" as="sourcePoint" />
            <mxPoint x="615" y="1266" as="targetPoint" />
            <Array as="points" />
          </mxGeometry>
        </mxCell>
        <mxCell id="KuJ4x0eiueRcXk5auPj3-51" value="" style="endArrow=none;html=1;rounded=0;entryX=0.5;entryY=0;entryDx=0;entryDy=0;" parent="1" target="F4AcdebA19WUywxoF-Kg-479" edge="1">
          <mxGeometry width="50" height="50" relative="1" as="geometry">
            <mxPoint x="185" y="1497" as="sourcePoint" />
            <mxPoint x="625" y="1276" as="targetPoint" />
            <Array as="points" />
          </mxGeometry>
        </mxCell>
        <mxCell id="KuJ4x0eiueRcXk5auPj3-52" value="" style="endArrow=none;html=1;rounded=0;entryX=0.051;entryY=0.772;entryDx=0;entryDy=0;exitX=1;exitY=0.3333333333333333;exitDx=0;exitDy=0;exitPerimeter=0;entryPerimeter=0;" parent="1" source="F4AcdebA19WUywxoF-Kg-421" target="3ps5oHHKvqDtLU3wPSqC-7" edge="1">
          <mxGeometry width="50" height="50" relative="1" as="geometry">
            <mxPoint x="224" y="1532" as="sourcePoint" />
            <mxPoint x="635" y="1286" as="targetPoint" />
            <Array as="points" />
          </mxGeometry>
        </mxCell>
        <mxCell id="KuJ4x0eiueRcXk5auPj3-53" value="" style="endArrow=none;html=1;rounded=0;entryX=0;entryY=0.5;entryDx=0;entryDy=0;exitX=1;exitY=0.3333333333333333;exitDx=0;exitDy=0;exitPerimeter=0;" parent="1" source="F4AcdebA19WUywxoF-Kg-421" target="F4AcdebA19WUywxoF-Kg-427" edge="1">
          <mxGeometry width="50" height="50" relative="1" as="geometry">
            <mxPoint x="234" y="1542" as="sourcePoint" />
            <mxPoint x="645" y="1296" as="targetPoint" />
            <Array as="points" />
          </mxGeometry>
        </mxCell>
        <mxCell id="KuJ4x0eiueRcXk5auPj3-54" value="" style="endArrow=none;html=1;rounded=0;entryX=0;entryY=0.5;entryDx=0;entryDy=0;exitX=1;exitY=0.3333333333333333;exitDx=0;exitDy=0;exitPerimeter=0;" parent="1" source="F4AcdebA19WUywxoF-Kg-421" target="F4AcdebA19WUywxoF-Kg-468" edge="1">
          <mxGeometry width="50" height="50" relative="1" as="geometry">
            <mxPoint x="244" y="1552" as="sourcePoint" />
            <mxPoint x="655" y="1306" as="targetPoint" />
            <Array as="points" />
          </mxGeometry>
        </mxCell>
        <mxCell id="KuJ4x0eiueRcXk5auPj3-55" value="" style="endArrow=none;html=1;rounded=0;entryX=0.009;entryY=0.59;entryDx=0;entryDy=0;entryPerimeter=0;" parent="1" source="F4AcdebA19WUywxoF-Kg-421" target="F4AcdebA19WUywxoF-Kg-478" edge="1">
          <mxGeometry width="50" height="50" relative="1" as="geometry">
            <mxPoint x="254" y="1562" as="sourcePoint" />
            <mxPoint x="665" y="1316" as="targetPoint" />
            <Array as="points" />
          </mxGeometry>
        </mxCell>
        <mxCell id="KuJ4x0eiueRcXk5auPj3-56" value="" style="endArrow=none;html=1;rounded=0;entryX=-0.002;entryY=0.603;entryDx=0;entryDy=0;exitX=0.75;exitY=0.1;exitDx=0;exitDy=0;exitPerimeter=0;entryPerimeter=0;" parent="1" source="F4AcdebA19WUywxoF-Kg-421" target="F4AcdebA19WUywxoF-Kg-472" edge="1">
          <mxGeometry width="50" height="50" relative="1" as="geometry">
            <mxPoint x="264" y="1572" as="sourcePoint" />
            <mxPoint x="675" y="1326" as="targetPoint" />
            <Array as="points" />
          </mxGeometry>
        </mxCell>
        <mxCell id="KuJ4x0eiueRcXk5auPj3-57" value="" style="endArrow=none;html=1;rounded=0;entryX=0;entryY=0.5;entryDx=0;entryDy=0;exitX=0.5;exitY=0;exitDx=0;exitDy=0;exitPerimeter=0;" parent="1" source="F4AcdebA19WUywxoF-Kg-421" target="F4AcdebA19WUywxoF-Kg-423" edge="1">
          <mxGeometry width="50" height="50" relative="1" as="geometry">
            <mxPoint x="274" y="1582" as="sourcePoint" />
            <mxPoint x="685" y="1336" as="targetPoint" />
            <Array as="points" />
          </mxGeometry>
        </mxCell>
        <mxCell id="KuJ4x0eiueRcXk5auPj3-59" value="" style="endArrow=none;html=1;rounded=0;entryX=0;entryY=0.3333333333333333;entryDx=0;entryDy=0;exitX=0.5;exitY=0;exitDx=0;exitDy=0;entryPerimeter=0;" parent="1" source="F4AcdebA19WUywxoF-Kg-618" target="F4AcdebA19WUywxoF-Kg-496" edge="1">
          <mxGeometry width="50" height="50" relative="1" as="geometry">
            <mxPoint x="948" y="1383" as="sourcePoint" />
            <mxPoint x="1359" y="1137" as="targetPoint" />
            <Array as="points" />
          </mxGeometry>
        </mxCell>
        <mxCell id="KuJ4x0eiueRcXk5auPj3-61" value="" style="endArrow=none;html=1;rounded=0;entryX=0.5;entryY=0;entryDx=0;entryDy=0;exitX=1;exitY=0.5;exitDx=0;exitDy=0;entryPerimeter=0;" parent="1" source="F4AcdebA19WUywxoF-Kg-647" target="F4AcdebA19WUywxoF-Kg-496" edge="1">
          <mxGeometry width="50" height="50" relative="1" as="geometry">
            <mxPoint x="1102.5" y="1397" as="sourcePoint" />
            <mxPoint x="1513.5" y="1151" as="targetPoint" />
            <Array as="points" />
          </mxGeometry>
        </mxCell>
        <mxCell id="KuJ4x0eiueRcXk5auPj3-62" value="" style="endArrow=none;html=1;rounded=0;entryX=0.5;entryY=0;entryDx=0;entryDy=0;exitX=1;exitY=0.5;exitDx=0;exitDy=0;entryPerimeter=0;" parent="1" source="F4AcdebA19WUywxoF-Kg-645" target="F4AcdebA19WUywxoF-Kg-496" edge="1">
          <mxGeometry width="50" height="50" relative="1" as="geometry">
            <mxPoint x="888" y="1367" as="sourcePoint" />
            <mxPoint x="1318" y="1475" as="targetPoint" />
            <Array as="points" />
          </mxGeometry>
        </mxCell>
        <mxCell id="KuJ4x0eiueRcXk5auPj3-63" value="" style="endArrow=none;html=1;rounded=0;exitX=1;exitY=0.5;exitDx=0;exitDy=0;entryX=0;entryY=0.3333333333333333;entryDx=0;entryDy=0;entryPerimeter=0;" parent="1" source="F4AcdebA19WUywxoF-Kg-646" target="F4AcdebA19WUywxoF-Kg-496" edge="1">
          <mxGeometry width="50" height="50" relative="1" as="geometry">
            <mxPoint x="898" y="1377" as="sourcePoint" />
            <mxPoint x="1304" y="1468" as="targetPoint" />
            <Array as="points" />
          </mxGeometry>
        </mxCell>
        <mxCell id="KuJ4x0eiueRcXk5auPj3-65" value="" style="endArrow=none;html=1;rounded=0;entryX=0.5;entryY=0;entryDx=0;entryDy=0;exitX=1;exitY=0.5;exitDx=0;exitDy=0;entryPerimeter=0;" parent="1" source="F4AcdebA19WUywxoF-Kg-640" target="F4AcdebA19WUywxoF-Kg-496" edge="1">
          <mxGeometry width="50" height="50" relative="1" as="geometry">
            <mxPoint x="918" y="1397" as="sourcePoint" />
            <mxPoint x="1348" y="1505" as="targetPoint" />
            <Array as="points" />
          </mxGeometry>
        </mxCell>
        <mxCell id="KuJ4x0eiueRcXk5auPj3-66" value="" style="endArrow=none;html=1;rounded=0;exitX=1;exitY=0.5;exitDx=0;exitDy=0;entryX=0.5;entryY=0;entryDx=0;entryDy=0;entryPerimeter=0;" parent="1" source="F4AcdebA19WUywxoF-Kg-659" target="F4AcdebA19WUywxoF-Kg-496" edge="1">
          <mxGeometry width="50" height="50" relative="1" as="geometry">
            <mxPoint x="1089" y="1180" as="sourcePoint" />
            <mxPoint x="1306" y="1466" as="targetPoint" />
            <Array as="points" />
          </mxGeometry>
        </mxCell>
        <mxCell id="KuJ4x0eiueRcXk5auPj3-67" value="" style="endArrow=none;html=1;rounded=0;exitX=1;exitY=0.5;exitDx=0;exitDy=0;entryX=0.5;entryY=0;entryDx=0;entryDy=0;entryPerimeter=0;" parent="1" source="F4AcdebA19WUywxoF-Kg-657" target="F4AcdebA19WUywxoF-Kg-496" edge="1">
          <mxGeometry width="50" height="50" relative="1" as="geometry">
            <mxPoint x="1089" y="1110" as="sourcePoint" />
            <mxPoint x="1318" y="1475" as="targetPoint" />
            <Array as="points" />
          </mxGeometry>
        </mxCell>
        <mxCell id="KuJ4x0eiueRcXk5auPj3-70" value="" style="endArrow=none;html=1;rounded=0;exitX=1;exitY=0.5;exitDx=0;exitDy=0;entryX=0.5;entryY=0;entryDx=0;entryDy=0;entryPerimeter=0;" parent="1" source="F4AcdebA19WUywxoF-Kg-658" target="F4AcdebA19WUywxoF-Kg-496" edge="1">
          <mxGeometry width="50" height="50" relative="1" as="geometry">
            <mxPoint x="1081" y="904" as="sourcePoint" />
            <mxPoint x="1318" y="1475" as="targetPoint" />
            <Array as="points" />
          </mxGeometry>
        </mxCell>
        <mxCell id="KuJ4x0eiueRcXk5auPj3-82" value="8" style="ellipse;whiteSpace=wrap;html=1;" parent="1" vertex="1">
          <mxGeometry x="738.89" y="1478" width="36.5" height="35.68" as="geometry" />
        </mxCell>
        <mxCell id="KuJ4x0eiueRcXk5auPj3-83" value="22" style="ellipse;whiteSpace=wrap;html=1;" parent="1" vertex="1">
          <mxGeometry x="850" y="1527" width="36.5" height="35.68" as="geometry" />
        </mxCell>
        <mxCell id="KuJ4x0eiueRcXk5auPj3-84" value="20" style="ellipse;whiteSpace=wrap;html=1;" parent="1" vertex="1">
          <mxGeometry x="275" y="1650" width="36.5" height="35.68" as="geometry" />
        </mxCell>
        <mxCell id="KuJ4x0eiueRcXk5auPj3-85" value="10" style="ellipse;whiteSpace=wrap;html=1;" parent="1" vertex="1">
          <mxGeometry x="348" y="1741" width="36.5" height="35.68" as="geometry" />
        </mxCell>
        <mxCell id="KuJ4x0eiueRcXk5auPj3-86" value="11" style="ellipse;whiteSpace=wrap;html=1;" parent="1" vertex="1">
          <mxGeometry x="450" y="1741" width="36.5" height="35.68" as="geometry" />
        </mxCell>
        <mxCell id="KuJ4x0eiueRcXk5auPj3-87" value="9" style="ellipse;whiteSpace=wrap;html=1;" parent="1" vertex="1">
          <mxGeometry x="564" y="1738" width="36.5" height="35.68" as="geometry" />
        </mxCell>
        <mxCell id="KuJ4x0eiueRcXk5auPj3-88" value="6" style="ellipse;whiteSpace=wrap;html=1;" parent="1" vertex="1">
          <mxGeometry x="682" y="1735" width="36.5" height="35.68" as="geometry" />
        </mxCell>
        <mxCell id="KuJ4x0eiueRcXk5auPj3-89" value="5" style="ellipse;whiteSpace=wrap;html=1;" parent="1" vertex="1">
          <mxGeometry x="800.5" y="1735" width="36.5" height="35.68" as="geometry" />
        </mxCell>
        <mxCell id="KuJ4x0eiueRcXk5auPj3-93" value="7" style="ellipse;whiteSpace=wrap;html=1;" parent="1" vertex="1">
          <mxGeometry x="919" y="1423.5" width="36.5" height="35.68" as="geometry" />
        </mxCell>
        <mxCell id="KuJ4x0eiueRcXk5auPj3-95" value="28" style="ellipse;whiteSpace=wrap;html=1;" parent="1" vertex="1">
          <mxGeometry x="782" y="1328" width="36.5" height="35.68" as="geometry" />
        </mxCell>
        <mxCell id="KuJ4x0eiueRcXk5auPj3-96" value="27" style="ellipse;whiteSpace=wrap;html=1;" parent="1" vertex="1">
          <mxGeometry x="780" y="1275.8" width="36.5" height="35.68" as="geometry" />
        </mxCell>
        <mxCell id="KuJ4x0eiueRcXk5auPj3-97" value="26" style="ellipse;whiteSpace=wrap;html=1;" parent="1" vertex="1">
          <mxGeometry x="814.25" y="1138" width="36.5" height="35.68" as="geometry" />
        </mxCell>
        <mxCell id="KuJ4x0eiueRcXk5auPj3-99" value="32" style="ellipse;whiteSpace=wrap;html=1;" parent="1" vertex="1">
          <mxGeometry x="970" y="1146.25" width="36.5" height="35.68" as="geometry" />
        </mxCell>
        <mxCell id="KuJ4x0eiueRcXk5auPj3-100" value="31" style="ellipse;whiteSpace=wrap;html=1;" parent="1" vertex="1">
          <mxGeometry x="970" y="1073.8" width="36.5" height="35.68" as="geometry" />
        </mxCell>
        <mxCell id="KuJ4x0eiueRcXk5auPj3-101" value="29" style="ellipse;whiteSpace=wrap;html=1;" parent="1" vertex="1">
          <mxGeometry x="954.13" y="1002.25" width="36.5" height="35.68" as="geometry" />
        </mxCell>
        <mxCell id="KuJ4x0eiueRcXk5auPj3-105" value="" style="swimlane;startSize=0;" parent="1" vertex="1">
          <mxGeometry x="209" y="500" width="1193" height="1328" as="geometry">
            <mxRectangle x="209" y="500" width="50" height="44" as="alternateBounds" />
          </mxGeometry>
        </mxCell>
        <mxCell id="F4AcdebA19WUywxoF-Kg-518" value="Просмотр&lt;br&gt;своих словарей" style="ellipse;whiteSpace=wrap;html=1;" parent="KuJ4x0eiueRcXk5auPj3-105" vertex="1">
          <mxGeometry x="858" y="1245" width="103.88" height="77" as="geometry" />
        </mxCell>
        <mxCell id="F4AcdebA19WUywxoF-Kg-607" value="Добавление своего словаря" style="ellipse;whiteSpace=wrap;html=1;" parent="KuJ4x0eiueRcXk5auPj3-105" vertex="1">
          <mxGeometry x="733" y="1250" width="102.12" height="74.66" as="geometry" />
        </mxCell>
        <mxCell id="KuJ4x0eiueRcXk5auPj3-90" value="3" style="ellipse;whiteSpace=wrap;html=1;" parent="KuJ4x0eiueRcXk5auPj3-105" vertex="1">
          <mxGeometry x="853" y="1235" width="36.5" height="35.68" as="geometry" />
        </mxCell>
        <mxCell id="KuJ4x0eiueRcXk5auPj3-91" value="4" style="ellipse;whiteSpace=wrap;html=1;" parent="KuJ4x0eiueRcXk5auPj3-105" vertex="1">
          <mxGeometry x="737" y="1238" width="36.5" height="35.68" as="geometry" />
        </mxCell>
        <mxCell id="F4AcdebA19WUywxoF-Kg-450" value="Просмотр&lt;br&gt;словарей администратора" style="ellipse;whiteSpace=wrap;html=1;" parent="KuJ4x0eiueRcXk5auPj3-105" vertex="1">
          <mxGeometry x="421.62" y="747" width="123" height="62.5" as="geometry" />
        </mxCell>
        <mxCell id="F4AcdebA19WUywxoF-Kg-427" value="Перевод слов&lt;br&gt;&amp;nbsp;в соревновательном режиме" style="ellipse;whiteSpace=wrap;html=1;" parent="KuJ4x0eiueRcXk5auPj3-105" vertex="1">
          <mxGeometry x="318" y="897" width="154" height="73.18" as="geometry" />
        </mxCell>
        <mxCell id="KuJ4x0eiueRcXk5auPj3-81" value="25" style="ellipse;whiteSpace=wrap;html=1;" parent="KuJ4x0eiueRcXk5auPj3-105" vertex="1">
          <mxGeometry x="459.75" y="906.6600000000001" width="36.5" height="35.68" as="geometry" />
        </mxCell>
        <mxCell id="F4AcdebA19WUywxoF-Kg-425" value="Просмотр статистики" style="ellipse;whiteSpace=wrap;html=1;" parent="KuJ4x0eiueRcXk5auPj3-105" vertex="1">
          <mxGeometry x="450" y="824.66" width="82" height="80" as="geometry" />
        </mxCell>
        <mxCell id="KuJ4x0eiueRcXk5auPj3-80" value="13" style="ellipse;whiteSpace=wrap;html=1;" parent="KuJ4x0eiueRcXk5auPj3-105" vertex="1">
          <mxGeometry x="505" y="813" width="36.5" height="35.68" as="geometry" />
        </mxCell>
        <mxCell id="KuJ4x0eiueRcXk5auPj3-78" value="12" style="ellipse;whiteSpace=wrap;html=1;" parent="KuJ4x0eiueRcXk5auPj3-105" vertex="1">
          <mxGeometry x="515" y="740" width="36.5" height="35.68" as="geometry" />
        </mxCell>
        <mxCell id="F4AcdebA19WUywxoF-Kg-423" value="&lt;span style=&quot;line-height: 115%;&quot;&gt;&lt;font style=&quot;font-size: 11px;&quot;&gt;Спросить&lt;br&gt;ответ у искусственного интеллекта&lt;/font&gt;&lt;/span&gt;" style="ellipse;whiteSpace=wrap;html=1;" parent="KuJ4x0eiueRcXk5auPj3-105" vertex="1">
          <mxGeometry x="360.75" y="189" width="116.63" height="81" as="geometry" />
        </mxCell>
        <mxCell id="F4AcdebA19WUywxoF-Kg-468" value="Просмотр настроек аккаунта" style="ellipse;whiteSpace=wrap;html=1;" parent="KuJ4x0eiueRcXk5auPj3-105" vertex="1">
          <mxGeometry x="359" y="580.04" width="106" height="74" as="geometry" />
        </mxCell>
        <mxCell id="F4AcdebA19WUywxoF-Kg-472" value="Смена пароля" style="ellipse;whiteSpace=wrap;html=1;" parent="KuJ4x0eiueRcXk5auPj3-105" vertex="1">
          <mxGeometry x="359" y="284.03999999999996" width="97.25" height="77" as="geometry" />
        </mxCell>
        <mxCell id="F4AcdebA19WUywxoF-Kg-477" value="Смена режима изучения лексикона" style="ellipse;whiteSpace=wrap;html=1;" parent="KuJ4x0eiueRcXk5auPj3-105" vertex="1">
          <mxGeometry x="352" y="374.03999999999996" width="111" height="88" as="geometry" />
        </mxCell>
        <mxCell id="F4AcdebA19WUywxoF-Kg-478" value="Смена режима изучения грамматики" style="ellipse;whiteSpace=wrap;html=1;" parent="KuJ4x0eiueRcXk5auPj3-105" vertex="1">
          <mxGeometry x="356.25" y="475.3299999999997" width="109" height="84.71" as="geometry" />
        </mxCell>
        <mxCell id="3ps5oHHKvqDtLU3wPSqC-7" value="Решение заданий" style="ellipse;whiteSpace=wrap;html=1;" parent="KuJ4x0eiueRcXk5auPj3-105" vertex="1">
          <mxGeometry x="363.25" y="674.53" width="110" height="75.97" as="geometry" />
        </mxCell>
        <mxCell id="KuJ4x0eiueRcXk5auPj3-73" value="17" style="ellipse;whiteSpace=wrap;html=1;" parent="KuJ4x0eiueRcXk5auPj3-105" vertex="1">
          <mxGeometry x="382.75" y="269.01" width="45" height="43" as="geometry" />
        </mxCell>
        <mxCell id="KuJ4x0eiueRcXk5auPj3-74" value="21" style="ellipse;whiteSpace=wrap;html=1;" parent="KuJ4x0eiueRcXk5auPj3-105" vertex="1">
          <mxGeometry x="419.75" y="363.03999999999996" width="36.5" height="35.68" as="geometry" />
        </mxCell>
        <mxCell id="KuJ4x0eiueRcXk5auPj3-75" value="19" style="ellipse;whiteSpace=wrap;html=1;" parent="KuJ4x0eiueRcXk5auPj3-105" vertex="1">
          <mxGeometry x="426.5" y="459.53999999999996" width="36.5" height="35.68" as="geometry" />
        </mxCell>
        <mxCell id="KuJ4x0eiueRcXk5auPj3-76" value="16" style="ellipse;whiteSpace=wrap;html=1;" parent="KuJ4x0eiueRcXk5auPj3-105" vertex="1">
          <mxGeometry x="437.88" y="572.7" width="36.5" height="35.68" as="geometry" />
        </mxCell>
        <mxCell id="KuJ4x0eiueRcXk5auPj3-77" value="14" style="ellipse;whiteSpace=wrap;html=1;" parent="KuJ4x0eiueRcXk5auPj3-105" vertex="1">
          <mxGeometry x="430.25" y="663.04" width="36.5" height="35.68" as="geometry" />
        </mxCell>
        <mxCell id="KuJ4x0eiueRcXk5auPj3-108" value="24" style="ellipse;whiteSpace=wrap;html=1;" parent="KuJ4x0eiueRcXk5auPj3-105" vertex="1">
          <mxGeometry x="388.25" y="160" width="45" height="43" as="geometry" />
        </mxCell>
        <mxCell id="KuJ4x0eiueRcXk5auPj3-109" value="&lt;span style=&quot;line-height: 115%;&quot;&gt;&lt;font style=&quot;font-size: 12px;&quot;&gt;Смена&lt;br&gt;количества правильных ответов&lt;/font&gt;&lt;/span&gt;" style="ellipse;whiteSpace=wrap;html=1;" parent="KuJ4x0eiueRcXk5auPj3-105" vertex="1">
          <mxGeometry x="63" y="444" width="95" height="78" as="geometry" />
        </mxCell>
        <mxCell id="KuJ4x0eiueRcXk5auPj3-110" value="18" style="ellipse;whiteSpace=wrap;html=1;" parent="KuJ4x0eiueRcXk5auPj3-105" vertex="1">
          <mxGeometry x="97.25" y="415.65" width="36.5" height="35.68" as="geometry" />
        </mxCell>
        <mxCell id="F4AcdebA19WUywxoF-Kg-618" value="Просмотр&lt;br&gt;тем" style="ellipse;whiteSpace=wrap;html=1;" parent="KuJ4x0eiueRcXk5auPj3-105" vertex="1">
          <mxGeometry x="1087" y="1231" width="97" height="55" as="geometry" />
        </mxCell>
        <mxCell id="KuJ4x0eiueRcXk5auPj3-94" value="33" style="ellipse;whiteSpace=wrap;html=1;" parent="KuJ4x0eiueRcXk5auPj3-105" vertex="1">
          <mxGeometry x="1153" y="1258" width="36.5" height="35.68" as="geometry" />
        </mxCell>
        <mxCell id="F4AcdebA19WUywxoF-Kg-463" value="Просмотр уроков" style="ellipse;whiteSpace=wrap;html=1;" parent="KuJ4x0eiueRcXk5auPj3-105" vertex="1">
          <mxGeometry x="972" y="1247" width="105.87" height="73" as="geometry" />
        </mxCell>
        <mxCell id="KuJ4x0eiueRcXk5auPj3-92" value="15" style="ellipse;whiteSpace=wrap;html=1;" parent="KuJ4x0eiueRcXk5auPj3-105" vertex="1">
          <mxGeometry x="1012" y="1231" width="36.5" height="35.68" as="geometry" />
        </mxCell>
        <mxCell id="F4AcdebA19WUywxoF-Kg-658" value="Изменение задания" style="ellipse;whiteSpace=wrap;html=1;" parent="KuJ4x0eiueRcXk5auPj3-105" vertex="1">
          <mxGeometry x="750" y="405.86" width="89" height="71" as="geometry" />
        </mxCell>
        <mxCell id="KuJ4x0eiueRcXk5auPj3-104" value="30" style="ellipse;whiteSpace=wrap;html=1;" parent="KuJ4x0eiueRcXk5auPj3-105" vertex="1">
          <mxGeometry x="771" y="381.0000000000001" width="36.5" height="35.68" as="geometry" />
        </mxCell>
        <mxCell id="KuJ4x0eiueRcXk5auPj3-111" value="" style="endArrow=none;html=1;rounded=0;entryX=0.5;entryY=1;entryDx=0;entryDy=0;exitX=0.5;exitY=0;exitDx=0;exitDy=0;exitPerimeter=0;" parent="1" source="F4AcdebA19WUywxoF-Kg-421" target="KuJ4x0eiueRcXk5auPj3-109" edge="1">
          <mxGeometry width="50" height="50" relative="1" as="geometry">
            <mxPoint x="174" y="1475" as="sourcePoint" />
            <mxPoint x="536" y="715" as="targetPoint" />
            <Array as="points" />
          </mxGeometry>
        </mxCell>
        <mxCell id="KuJ4x0eiueRcXk5auPj3-112" value="" style="endArrow=none;html=1;rounded=0;entryX=1;entryY=0.3333333333333333;entryDx=0;entryDy=0;exitX=0.5;exitY=0;exitDx=0;exitDy=0;entryPerimeter=0;" parent="1" source="F4AcdebA19WUywxoF-Kg-618" target="F4AcdebA19WUywxoF-Kg-421" edge="1">
          <mxGeometry width="50" height="50" relative="1" as="geometry">
            <mxPoint x="1358" y="1720" as="sourcePoint" />
            <mxPoint x="1456" y="1569" as="targetPoint" />
            <Array as="points" />
          </mxGeometry>
        </mxCell>
      </root>
    </mxGraphModel>
  </diagram>
  <diagram id="EOT_DFg0eRyq0VSUQQY3" name="Страница — 2">
    <mxGraphModel dx="1424" dy="705" grid="0" gridSize="10" guides="1" tooltips="1" connect="1" arrows="1" fold="1" page="1" pageScale="1" pageWidth="1654" pageHeight="2336" math="0" shadow="0">
      <root>
        <mxCell id="0" />
        <mxCell id="1" parent="0" />
        <mxCell id="nWKO-AZ505BaYZoFzbMJ-1" value="&lt;div style=&quot;&quot;&gt;Windows Server&amp;nbsp; 2025&lt;/div&gt;" style="verticalAlign=top;align=center;spacingTop=8;spacingLeft=2;spacingRight=12;shape=cube;size=10;direction=south;fontStyle=4;html=1;whiteSpace=wrap;fontFamily=Times New Roman;fontSize=14;" parent="1" vertex="1">
          <mxGeometry x="95" y="241" width="1351.39" height="527.51" as="geometry" />
        </mxCell>
        <mxCell id="nWKO-AZ505BaYZoFzbMJ-2" value="&lt;div style=&quot;&quot;&gt;&lt;span style=&quot;background-color: initial;&quot;&gt;Docker Compose 27.3.1&lt;/span&gt;&lt;/div&gt;&lt;div style=&quot;font-size: 14px;&quot;&gt;&lt;br&gt;&lt;/div&gt;" style="verticalAlign=top;align=center;spacingTop=8;spacingLeft=2;spacingRight=12;shape=cube;size=10;direction=south;fontStyle=4;html=1;whiteSpace=wrap;fontFamily=Times New Roman;fontSize=14;" parent="1" vertex="1">
          <mxGeometry x="167" y="280" width="1235.39" height="460.51" as="geometry" />
        </mxCell>
        <mxCell id="A_X54j0fRR2OyGkiRu0J-6" value="&lt;div style=&quot;&quot;&gt;&lt;span style=&quot;background-color: initial;&quot;&gt;Docker Container 27.3.1&amp;nbsp;&lt;/span&gt;&lt;/div&gt;&lt;div style=&quot;&quot;&gt;&lt;div&gt;&lt;span style=&quot;background-color: initial;&quot;&gt;(&lt;/span&gt;&lt;span style=&quot;background-color: rgb(251, 251, 251);&quot;&gt;OC. Linux. Ubuntu 22.04 LTS&lt;/span&gt;&lt;span style=&quot;background-color: initial;&quot;&gt;)&lt;/span&gt;&lt;/div&gt;&lt;div&gt;&lt;br&gt;&lt;/div&gt;&lt;/div&gt;" style="verticalAlign=top;align=center;spacingTop=8;spacingLeft=2;spacingRight=12;shape=cube;size=10;direction=south;fontStyle=4;html=1;whiteSpace=wrap;fontFamily=Times New Roman;fontSize=14;" parent="1" vertex="1">
          <mxGeometry x="991.39" y="333.51" width="256.39" height="213.51" as="geometry" />
        </mxCell>
        <mxCell id="nWKO-AZ505BaYZoFzbMJ-3" value="&lt;div style=&quot;&quot;&gt;&lt;div&gt;&lt;span style=&quot;background-color: initial;&quot;&gt;Docker Container 27.3.1&amp;nbsp;&lt;/span&gt;&lt;/div&gt;&lt;div&gt;&lt;span style=&quot;background-color: initial;&quot;&gt;(&lt;/span&gt;&lt;span style=&quot;background-color: rgb(251, 251, 251);&quot;&gt;OC. Linux. Ubuntu 22.04 LTS&lt;/span&gt;&lt;span style=&quot;background-color: initial;&quot;&gt;)&lt;/span&gt;&lt;/div&gt;&lt;/div&gt;" style="verticalAlign=top;align=center;spacingTop=8;spacingLeft=2;spacingRight=12;shape=cube;size=10;direction=south;fontStyle=4;html=1;whiteSpace=wrap;fontFamily=Times New Roman;fontSize=14;" parent="1" vertex="1">
          <mxGeometry x="192" y="337" width="200.39" height="223.51" as="geometry" />
        </mxCell>
        <mxCell id="nWKO-AZ505BaYZoFzbMJ-4" value="&lt;div style=&quot;&quot;&gt;&lt;span style=&quot;background-color: initial;&quot;&gt;Docker Container 27.3.1&amp;nbsp;&lt;/span&gt;&lt;/div&gt;&lt;div style=&quot;&quot;&gt;&lt;div&gt;&lt;span style=&quot;background-color: initial;&quot;&gt;(&lt;/span&gt;&lt;span style=&quot;background-color: rgb(251, 251, 251);&quot;&gt;OC. Linux. Ubuntu 22.04 LTS&lt;/span&gt;&lt;span style=&quot;background-color: initial;&quot;&gt;)&lt;/span&gt;&lt;/div&gt;&lt;div&gt;&lt;br&gt;&lt;/div&gt;&lt;/div&gt;" style="verticalAlign=top;align=center;spacingTop=8;spacingLeft=2;spacingRight=12;shape=cube;size=10;direction=south;fontStyle=4;html=1;whiteSpace=wrap;fontFamily=Times New Roman;fontSize=14;" parent="1" vertex="1">
          <mxGeometry x="587" y="337" width="256.39" height="261" as="geometry" />
        </mxCell>
        <mxCell id="nWKO-AZ505BaYZoFzbMJ-5" style="edgeStyle=orthogonalEdgeStyle;rounded=0;orthogonalLoop=1;jettySize=auto;html=1;startArrow=classic;startFill=1;entryX=0.416;entryY=-0.003;entryDx=0;entryDy=0;entryPerimeter=0;fontFamily=Times New Roman;fontSize=14;exitX=0.274;exitY=0.999;exitDx=0;exitDy=0;exitPerimeter=0;" parent="1" source="nWKO-AZ505BaYZoFzbMJ-4" edge="1">
          <mxGeometry relative="1" as="geometry">
            <mxPoint x="406.0024807128908" y="397.36913574218744" as="targetPoint" />
            <Array as="points">
              <mxPoint x="580.39" y="395.51" />
              <mxPoint x="490.39" y="394.51" />
              <mxPoint x="490.39" y="397.51" />
            </Array>
            <mxPoint x="584.39" y="395.51" as="sourcePoint" />
          </mxGeometry>
        </mxCell>
        <mxCell id="nWKO-AZ505BaYZoFzbMJ-6" value="HTTP 1.1." style="edgeLabel;html=1;align=center;verticalAlign=middle;resizable=0;points=[];fontFamily=Times New Roman;fontSize=14;" parent="nWKO-AZ505BaYZoFzbMJ-5" vertex="1" connectable="0">
          <mxGeometry x="-0.015" relative="1" as="geometry">
            <mxPoint as="offset" />
          </mxGeometry>
        </mxCell>
        <mxCell id="nWKO-AZ505BaYZoFzbMJ-7" style="rounded=0;orthogonalLoop=1;jettySize=auto;html=1;startArrow=classic;startFill=1;fontFamily=Times New Roman;fontSize=14;" parent="1" edge="1">
          <mxGeometry relative="1" as="geometry">
            <mxPoint x="586.39" y="470.51" as="sourcePoint" />
            <mxPoint x="407.0014807128906" y="468.9991357421875" as="targetPoint" />
          </mxGeometry>
        </mxCell>
        <mxCell id="nWKO-AZ505BaYZoFzbMJ-8" value="WebSocket 13" style="edgeLabel;html=1;align=center;verticalAlign=middle;resizable=0;points=[];fontFamily=Times New Roman;fontSize=14;" parent="nWKO-AZ505BaYZoFzbMJ-7" vertex="1" connectable="0">
          <mxGeometry x="-0.015" relative="1" as="geometry">
            <mxPoint x="-6" as="offset" />
          </mxGeometry>
        </mxCell>
        <mxCell id="nWKO-AZ505BaYZoFzbMJ-9" value="&lt;div style=&quot;&quot;&gt;&lt;div&gt;Chrome Browser v128.0.6&lt;br&gt;&lt;/div&gt;&lt;div&gt;&lt;/div&gt;&lt;/div&gt;" style="verticalAlign=top;align=center;spacingTop=8;spacingLeft=2;spacingRight=12;shape=cube;size=10;direction=south;fontStyle=4;html=1;whiteSpace=wrap;fontFamily=Times New Roman;fontSize=14;" parent="1" vertex="1">
          <mxGeometry x="222.0014807128906" y="842.9991357421875" width="146" height="159" as="geometry" />
        </mxCell>
        <mxCell id="nWKO-AZ505BaYZoFzbMJ-11" value="&lt;div&gt;bundle 18.3.1&lt;/div&gt;&lt;div&gt;&lt;span style=&quot;background-color: initial;&quot;&gt;nginx 1.27.3&lt;/span&gt;&lt;/div&gt;" style="shape=module;align=left;spacingLeft=20;align=center;verticalAlign=top;whiteSpace=wrap;html=1;fontFamily=Times New Roman;fontSize=14;" parent="1" vertex="1">
          <mxGeometry x="219.39" y="437.74" width="125" height="59.51" as="geometry" />
        </mxCell>
        <mxCell id="nWKO-AZ505BaYZoFzbMJ-13" value="NodeJS 20.10.0&amp;nbsp;&lt;div style=&quot;font-size: 14px;&quot;&gt;NestJS 10.0.0&lt;br style=&quot;font-size: 14px;&quot;&gt;&lt;div style=&quot;font-size: 14px;&quot;&gt;websocket 1.0.34&lt;/div&gt;&lt;/div&gt;" style="shape=module;align=left;spacingLeft=20;align=center;verticalAlign=top;whiteSpace=wrap;html=1;fontFamily=Times New Roman;fontSize=14;" parent="1" vertex="1">
          <mxGeometry x="641.0014807128906" y="404.7691357421875" width="132.63" height="71" as="geometry" />
        </mxCell>
        <mxCell id="nWKO-AZ505BaYZoFzbMJ-14" style="edgeStyle=orthogonalEdgeStyle;rounded=0;orthogonalLoop=1;jettySize=auto;html=1;startArrow=classic;startFill=1;fontFamily=Times New Roman;fontSize=14;entryX=0.015;entryY=0.26;entryDx=0;entryDy=0;entryPerimeter=0;exitX=1.009;exitY=0.355;exitDx=0;exitDy=0;exitPerimeter=0;" parent="1" source="nWKO-AZ505BaYZoFzbMJ-3" target="nWKO-AZ505BaYZoFzbMJ-9" edge="1">
          <mxGeometry relative="1" as="geometry">
            <mxPoint x="322.0014807128906" y="817.9991357421875" as="targetPoint" />
            <Array as="points" />
            <mxPoint x="301.0014807128906" y="622.9991357421875" as="sourcePoint" />
          </mxGeometry>
        </mxCell>
        <mxCell id="nWKO-AZ505BaYZoFzbMJ-15" value="HTTPS" style="edgeLabel;html=1;align=center;verticalAlign=middle;resizable=0;points=[];fontFamily=Times New Roman;fontSize=14;" parent="nWKO-AZ505BaYZoFzbMJ-14" vertex="1" connectable="0">
          <mxGeometry x="-0.015" relative="1" as="geometry">
            <mxPoint x="3" y="-37" as="offset" />
          </mxGeometry>
        </mxCell>
        <mxCell id="nWKO-AZ505BaYZoFzbMJ-16" value="ReactJS 18.0.0&lt;div&gt;Redux&amp;nbsp;5.0.1&lt;/div&gt;&lt;div&gt;Axios 1.3.1&lt;/div&gt;" style="shape=module;align=left;spacingLeft=20;align=center;verticalAlign=top;whiteSpace=wrap;html=1;fontFamily=Times New Roman;fontSize=14;" parent="1" vertex="1">
          <mxGeometry x="231.0014807128906" y="912.9991357421875" width="116" height="59" as="geometry" />
        </mxCell>
        <mxCell id="nWKO-AZ505BaYZoFzbMJ-22" style="edgeStyle=orthogonalEdgeStyle;rounded=0;orthogonalLoop=1;jettySize=auto;html=1;startArrow=classic;startFill=1;fontFamily=Times New Roman;fontSize=14;exitX=1.001;exitY=0.567;exitDx=0;exitDy=0;exitPerimeter=0;entryX=0;entryY=0;entryDx=0;entryDy=80.5;entryPerimeter=0;" parent="1" source="nWKO-AZ505BaYZoFzbMJ-4" target="A_X54j0fRR2OyGkiRu0J-8" edge="1">
          <mxGeometry relative="1" as="geometry">
            <mxPoint x="700.39" y="817.51" as="targetPoint" />
            <Array as="points" />
            <mxPoint x="618.0014807128906" y="687.9991357421875" as="sourcePoint" />
          </mxGeometry>
        </mxCell>
        <mxCell id="nWKO-AZ505BaYZoFzbMJ-23" value="HTTPS" style="edgeLabel;html=1;align=center;verticalAlign=middle;resizable=0;points=[];fontFamily=Times New Roman;fontSize=14;" parent="nWKO-AZ505BaYZoFzbMJ-22" vertex="1" connectable="0">
          <mxGeometry x="-0.015" relative="1" as="geometry">
            <mxPoint x="3" y="-37" as="offset" />
          </mxGeometry>
        </mxCell>
        <mxCell id="nWKO-AZ505BaYZoFzbMJ-24" value="" style="endArrow=classic;startArrow=classic;html=1;rounded=0;entryX=0.991;entryY=0.727;entryDx=0;entryDy=0;entryPerimeter=0;exitX=0.01;exitY=0.805;exitDx=0;exitDy=0;exitPerimeter=0;edgeStyle=orthogonalEdgeStyle;" parent="1" source="nWKO-AZ505BaYZoFzbMJ-9" target="nWKO-AZ505BaYZoFzbMJ-3" edge="1">
          <mxGeometry width="50" height="50" relative="1" as="geometry">
            <mxPoint x="342.0014807128906" y="700.9991357421875" as="sourcePoint" />
            <mxPoint x="392.0014807128906" y="650.9991357421875" as="targetPoint" />
          </mxGeometry>
        </mxCell>
        <mxCell id="nWKO-AZ505BaYZoFzbMJ-25" value="&lt;span style=&quot;font-family: &amp;quot;Times New Roman&amp;quot;; font-size: 14px;&quot;&gt;WebSocket 13&amp;nbsp;&lt;/span&gt;" style="edgeLabel;html=1;align=center;verticalAlign=middle;resizable=0;points=[];" parent="nWKO-AZ505BaYZoFzbMJ-24" vertex="1" connectable="0">
          <mxGeometry x="0.0284" y="1" relative="1" as="geometry">
            <mxPoint as="offset" />
          </mxGeometry>
        </mxCell>
        <mxCell id="A_X54j0fRR2OyGkiRu0J-2" style="edgeStyle=orthogonalEdgeStyle;rounded=0;orthogonalLoop=1;jettySize=auto;html=1;startArrow=classic;startFill=1;entryX=0.416;entryY=-0.003;entryDx=0;entryDy=0;entryPerimeter=0;fontFamily=Times New Roman;fontSize=14;" parent="1" edge="1">
          <mxGeometry relative="1" as="geometry">
            <mxPoint x="836.3924807128907" y="446.9591357421874" as="targetPoint" />
            <Array as="points">
              <mxPoint x="980.39" y="445.51" />
              <mxPoint x="920.39" y="444.51" />
              <mxPoint x="920.39" y="446.51" />
            </Array>
            <mxPoint x="988.39" y="444.51" as="sourcePoint" />
          </mxGeometry>
        </mxCell>
        <mxCell id="A_X54j0fRR2OyGkiRu0J-3" value="TCP" style="edgeLabel;html=1;align=center;verticalAlign=middle;resizable=0;points=[];fontFamily=Times New Roman;fontSize=14;" parent="A_X54j0fRR2OyGkiRu0J-2" vertex="1" connectable="0">
          <mxGeometry x="-0.015" relative="1" as="geometry">
            <mxPoint as="offset" />
          </mxGeometry>
        </mxCell>
        <mxCell id="nWKO-AZ505BaYZoFzbMJ-21" value="&lt;span style=&quot;font-size: 12px;&quot;&gt;PostgreSQL 16.0&lt;/span&gt;" style="shape=module;align=left;spacingLeft=20;align=center;verticalAlign=top;whiteSpace=wrap;html=1;fontFamily=Times New Roman;fontSize=14;" parent="1" vertex="1">
          <mxGeometry x="1053.2714807128905" y="431.5091357421875" width="132.63" height="71" as="geometry" />
        </mxCell>
        <mxCell id="A_X54j0fRR2OyGkiRu0J-8" value="&lt;div style=&quot;&quot;&gt;&lt;div&gt;DeepInfra Api v17.1&lt;br&gt;&lt;/div&gt;&lt;div&gt;&lt;/div&gt;&lt;/div&gt;" style="verticalAlign=top;align=center;spacingTop=8;spacingLeft=2;spacingRight=12;shape=cube;size=10;direction=south;fontStyle=4;html=1;whiteSpace=wrap;fontFamily=Times New Roman;fontSize=14;" parent="1" vertex="1">
          <mxGeometry x="607.39" y="849.51" width="171" height="63" as="geometry" />
        </mxCell>
        <mxCell id="ctOiMvLxEn_7M_OSIlxB-1" value="Prisma ORM 6.5.0" style="shape=module;align=left;spacingLeft=20;align=center;verticalAlign=top;whiteSpace=wrap;html=1;fontFamily=Times New Roman;fontSize=14;" vertex="1" parent="1">
          <mxGeometry x="641.0014807128906" y="497.2491357421875" width="132.63" height="71" as="geometry" />
        </mxCell>
      </root>
    </mxGraphModel>
  </diagram>
</mxfile>
